<svg width="169" height="30" viewBox="0 0 169 30" fill="none" xmlns="http://www.w3.org/2000/svg">
<g clip-path="url(#clip0_309_374)">
<path d="M14.9999 21.5877L20.1874 24.7252C21.1374 25.3002 22.2999 24.4502 22.0499 23.3752L20.6749 17.4752L25.2624 13.5002C26.0999 12.7752 25.6499 11.4002 24.5499 11.3127L18.5124 10.8002L16.1499 5.2252C15.7249 4.2127 14.2749 4.2127 13.8499 5.2252L11.4874 10.7877L5.44991 11.3002C4.34991 11.3877 3.89991 12.7627 4.73741 13.4877L9.32491 17.4627L7.94991 23.3627C7.69991 24.4377 8.86241 25.2877 9.81241 24.7127L14.9999 21.5877Z" fill="#FBC737"/>
</g>
<g clip-path="url(#clip1_309_374)">
<path d="M49.9999 21.5877L55.1874 24.7252C56.1374 25.3002 57.2999 24.4502 57.0499 23.3752L55.6749 17.4752L60.2624 13.5002C61.0999 12.7752 60.6499 11.4002 59.5499 11.3127L53.5124 10.8002L51.1499 5.2252C50.7249 4.2127 49.2749 4.2127 48.8499 5.2252L46.4874 10.7877L40.4499 11.3002C39.3499 11.3877 38.8999 12.7627 39.7374 13.4877L44.3249 17.4627L42.9499 23.3627C42.6999 24.4377 43.8624 25.2877 44.8124 24.7127L49.9999 21.5877Z" fill="#FBC737"/>
</g>
<g clip-path="url(#clip2_309_374)">
<path d="M83.9999 21.5877L89.1874 24.7252C90.1374 25.3002 91.2999 24.4502 91.0499 23.3752L89.6749 17.4752L94.2624 13.5002C95.0999 12.7752 94.6499 11.4002 93.5499 11.3127L87.5124 10.8002L85.1499 5.2252C84.7249 4.2127 83.2749 4.2127 82.8499 5.2252L80.4874 10.7877L74.4499 11.3002C73.3499 11.3877 72.8999 12.7627 73.7374 13.4877L78.3249 17.4627L76.9499 23.3627C76.6999 24.4377 77.8624 25.2877 78.8124 24.7127L83.9999 21.5877Z" fill="#FBC737"/>
</g>
<g clip-path="url(#clip3_309_374)">
<path d="M119 21.5877L124.187 24.7252C125.137 25.3002 126.3 24.4502 126.05 23.3752L124.675 17.4752L129.262 13.5002C130.1 12.7752 129.65 11.4002 128.55 11.3127L122.512 10.8002L120.15 5.2252C119.725 4.2127 118.275 4.2127 117.85 5.2252L115.487 10.7877L109.45 11.3002C108.35 11.3877 107.9 12.7627 108.737 13.4877L113.325 17.4627L111.95 23.3627C111.7 24.4377 112.862 25.2877 113.812 24.7127L119 21.5877Z" fill="#FBC737"/>
</g>
<g clip-path="url(#clip4_309_374)">
<path d="M163.562 11.3L157.512 10.775L155.15 5.2125C154.725 4.2 153.275 4.2 152.85 5.2125L150.487 10.7875L144.45 11.3C143.35 11.3875 142.9 12.7625 143.737 13.4875L148.325 17.4625L146.95 23.3625C146.7 24.4375 147.862 25.2875 148.812 24.7125L154 21.5875L159.187 24.725C160.137 25.3 161.3 24.45 161.05 23.375L159.675 17.4625L164.262 13.4875C165.1 12.7625 164.662 11.3875 163.562 11.3ZM154 19.25V7.625L156.137 12.675L161.612 13.15L157.462 16.75L158.712 22.1L154 19.25Z" fill="#FBBC05"/>
</g>
<defs>
<clipPath id="clip0_309_374">
<rect width="30" height="30" fill="white"/>
</clipPath>
<clipPath id="clip1_309_374">
<rect width="30" height="30" fill="white" transform="translate(35)"/>
</clipPath>
<clipPath id="clip2_309_374">
<rect width="30" height="30" fill="white" transform="translate(69)"/>
</clipPath>
<clipPath id="clip3_309_374">
<rect width="30" height="30" fill="white" transform="translate(104)"/>
</clipPath>
<clipPath id="clip4_309_374">
<rect width="30" height="30" fill="white" transform="translate(139)"/>
</clipPath>
</defs>
</svg>
