<svg width="449" height="428" viewBox="0 0 449 428" fill="none" xmlns="http://www.w3.org/2000/svg">
<path d="M352.295 307.473C352.295 318.385 347.932 326.887 342.767 326.887H34.0708C28.9038 326.887 24.7158 318.385 24.7158 307.473V50.5679C24.7158 39.6506 28.9038 30.8059 34.0708 30.8059H342.767C347.932 30.8059 352.295 39.6506 352.295 50.5679V307.473Z" fill="#EAF4FE"/>
<path d="M24.7158 164.358H352.296V102.622H24.7158V164.358Z" fill="#D7E9FD"/>
<path d="M24.7158 284.05H352.296V222.314H24.7158V284.05Z" fill="#D7E9FD"/>
<path d="M68.5034 36.328C68.5034 55.2467 53.168 70.5804 34.2519 70.5804C15.3355 70.5804 0 55.2467 0 36.328C0 17.4122 15.3355 2.07846 34.2519 2.07846C53.168 2.07846 68.5034 17.4122 68.5034 36.328Z" fill="url(#paint0_linear_55_405)"/>
<path d="M49.8205 52.9177V48.7666C49.8205 44.185 46.1022 40.4644 41.5165 40.4644H26.9874C22.3997 40.4644 18.6816 44.185 18.6816 48.7666V52.9177H49.8205Z" fill="white"/>
<path d="M41.5169 26.9702C41.5169 22.9635 38.2656 19.7057 34.2522 19.7057C30.2385 19.7057 26.9878 22.9635 26.9878 26.9702C26.9878 30.9857 30.2385 34.2375 34.2522 34.2375C38.2656 34.2375 41.5169 30.9857 41.5169 26.9702Z" fill="white"/>
<path d="M71.958 13.3201C71.958 20.6759 65.9979 26.6372 58.642 26.6372C51.2868 26.6372 45.3223 20.6759 45.3223 13.3201C45.3223 5.96425 51.2868 3.8147e-06 58.642 3.8147e-06C65.9979 3.8147e-06 71.958 5.96425 71.958 13.3201Z" fill="#EA3E72"/>
<path d="M431.637 130.545C431.637 137.579 425.936 143.278 418.901 143.278H266.101C259.066 143.278 253.367 137.579 253.367 130.545V129.389C253.367 122.354 259.066 116.655 266.101 116.655H418.901C425.936 116.655 431.637 122.354 431.637 129.389V130.545Z" fill="#C5E1F9"/>
<path d="M449 205.196C449 212.231 443.298 217.933 436.267 217.933H307.774C300.743 217.933 295.041 212.231 295.041 205.196V172.784C295.041 165.749 300.743 160.05 307.774 160.05H436.267C443.298 160.05 449 165.749 449 172.784V205.196Z" fill="#C5E1F9"/>
<path d="M317.034 133.431H266.039V126.502H317.034V133.431Z" fill="#5367FF"/>
<path d="M424.692 133.431H322.763V126.502H424.692V133.431Z" fill="#9AC7F7"/>
<path d="M213.693 129.969C213.693 137.679 219.947 143.932 227.659 143.932C235.372 143.932 241.625 137.679 241.625 129.969C241.625 122.257 235.372 116.001 227.659 116.001C219.947 116.001 213.693 122.257 213.693 129.969Z" fill="#EA3E72"/>
<path d="M364.498 177.418H307.712V170.493H364.498V177.418Z" fill="#5367FF"/>
<path d="M428.165 177.418H372.6V170.493H428.165V177.418Z" fill="#9AC7F7"/>
<path d="M414.273 192.466H307.712V185.54H414.273V192.466Z" fill="#9AC7F7"/>
<path d="M387.647 207.516H307.712V200.591H387.647V207.516Z" fill="#9AC7F7"/>
<path d="M255.366 173.954C255.366 181.669 261.622 187.923 269.332 187.923C277.045 187.923 283.298 181.669 283.298 173.954C283.298 166.244 277.045 159.994 269.332 159.994C261.622 159.994 255.366 166.244 255.366 173.954Z" fill="#5367FF"/>
<path d="M321.817 234.634H311.602V227.712H321.817V234.634Z" fill="#9AC7F7"/>
<path d="M337.534 234.634H327.318V227.712H337.534V234.634Z" fill="#9AC7F7"/>
<path d="M449 281.597C449 288.631 443.298 294.33 436.267 294.33H307.774C300.743 294.33 295.041 288.631 295.041 281.597V263.076C295.041 256.044 300.743 250.343 307.774 250.343H436.267C443.298 250.343 449 256.044 449 263.076V281.597Z" fill="#C5E1F9"/>
<path d="M393.434 267.711H307.712V260.785H393.434V267.711Z" fill="#5367FF"/>
<path d="M428.164 267.711H401.539V260.785H428.164V267.711Z" fill="#9AC7F7"/>
<path d="M367.968 282.761H307.712V275.836H367.968V282.761Z" fill="#9AC7F7"/>
<path d="M255.366 264.249C255.366 271.962 261.622 278.212 269.332 278.212C277.045 278.212 283.298 271.962 283.298 264.249C283.298 256.534 277.045 250.284 269.332 250.284C261.622 250.284 255.366 256.534 255.366 264.249Z" fill="#9AC7F7"/>
<path d="M172.557 41.4607C172.557 41.4607 163.42 25.8057 151.678 31.6756C139.935 37.5484 144.503 46.682 137.326 49.2912C130.149 51.9004 107.967 45.3789 95.572 47.9852C83.1748 50.5943 79.0455 57.7585 78.6094 65.6008C77.9573 77.3436 92.7417 93.0016 85.1336 97.5684C65.5609 109.311 84.6094 119.547 96.2245 124.969C115.797 134.103 172.557 132.145 171.902 123.012C171.248 113.878 182.342 119.751 191.473 120.402C200.606 121.054 192.779 96.9168 185.603 89.7408C178.427 82.5619 178.427 69.516 182.342 62.9916C186.254 56.4672 196.043 38.2 172.557 41.4607Z" fill="#212957"/>
<path d="M131.777 179.576L121.587 199.294C121.587 199.294 114.453 225.793 114.787 231.144C114.798 231.318 116.215 289.068 108.618 304.867C96.3865 330.31 92.065 400.879 93.4507 406.64C94.0406 409.093 100.583 410.26 100.791 409.576C126.233 325.906 132.594 305.356 132.594 305.356L152.346 221.506L176.631 296.061C176.631 296.061 180.033 309.749 181.036 314.163C184.945 331.401 206.523 382.332 213.328 406.15C214.306 409.576 221.644 409.087 221.644 409.087L200.606 303.888L193.757 267.681C193.757 267.681 176.613 191.552 173.96 176.383C171.306 161.218 142.68 167.822 131.777 179.576Z" fill="#212957"/>
<path d="M176.876 94.2253C176.876 94.2253 182.976 95.0773 185.437 112.327C187.905 129.58 190.452 150.003 185.145 150.952C179.836 151.898 165.236 147.349 168.65 129.908C172.064 112.466 176.876 94.2253 176.876 94.2253Z" fill="#225AAA"/>
<path d="M155.348 87.3737C149.476 93.7359 135.287 88.3525 135.287 88.3525C135.287 88.3525 139.835 158.724 129.597 179.579C119.361 200.432 175.476 179.579 175.476 179.579L172.823 135.217C172.823 135.217 177.723 96.8552 178.1 94.9594C178.48 93.0637 158.544 83.9095 155.348 87.3737Z" fill="url(#paint1_linear_55_405)"/>
<path d="M140.423 91.0442C134.654 86.4273 131.129 86.1531 126.234 97.8959C115.293 124.153 115.224 164.196 126.185 166.592C132.671 168.011 134.716 164.316 137.844 160.336C140.973 156.353 145.317 94.9594 140.423 91.0442Z" fill="#225AAA"/>
<path d="M152.753 221.939L151.942 221.388L164.832 202.431L165.64 202.982L152.753 221.939Z" fill="white"/>
<path d="M93.9296 406.74L92.9717 406.54L115.963 296.969L121.15 230.702L125.715 205.586L125.744 205.527L133.328 189.981L134.208 190.408L126.653 205.895L122.121 230.828L116.933 297.107L116.927 297.137L93.9296 406.74Z" fill="white"/>
<path d="M126.285 206.219L126.084 205.261C139.926 202.346 139.73 194.845 139.726 194.769L140.704 194.721C140.72 195.063 140.935 203.136 126.285 206.219Z" fill="white"/>
<path d="M208.343 69.0946C206.812 64.7814 204.371 60.9723 204.371 60.9723C204.371 60.9723 204.009 62.4434 204.805 65.2619C205.73 68.5286 207.788 73.3135 206.922 75.339C205.385 78.8975 205.893 79.555 205.173 77.4558C204.46 75.3478 205.512 72.0045 202.316 68.3546C202.281 68.3193 203.077 73.1514 203.101 77.7153C203.13 81.6659 205.48 86.6955 203.77 94.6322C198.183 105.16 190.096 120.423 185.606 133.089C180.786 146.686 179.084 150.822 183.628 151.235C193.012 152.09 197.304 140.843 198.699 135.598C201.305 125.801 206.615 95.835 206.615 95.835C206.641 95.7849 206.665 95.7348 206.692 95.6847C208.997 91.0088 211.176 84.0805 211.164 81.6305C211.161 80.289 210.179 74.3042 208.343 69.0946Z" fill="#F7B68B"/>
<path d="M210.789 82.1081C210.789 82.1081 211.718 73.6496 211.255 71.9485C210.934 70.7633 208.51 65.4418 208.51 65.4418C208.51 65.4418 207.912 68.5227 208.767 70.7161C209.619 72.9067 210.789 82.1081 210.789 82.1081Z" fill="#F7B68B"/>
<path d="M194.507 140.548C194.047 141.804 192.661 142.939 191.402 142.939H173.203C171.947 142.939 171.298 141.804 171.758 140.548L183.557 107.772C184.014 106.513 185.403 105.14 186.659 105.14H204.858C206.114 105.14 206.763 106.513 206.306 107.772L194.507 140.548Z" fill="#5367FF"/>
<path d="M178.509 122.513C178.509 122.513 176.233 126.496 177.752 126.874C179.27 127.254 188.746 121.944 188.746 121.944L191.779 121.564L184.338 127.49C183.772 127.776 189.158 124.011 192.015 122.796C193.657 122.103 194.778 122.463 195.19 122.325C196.329 121.944 185.382 129.15 185.382 129.15L190.028 127.634C190.028 127.634 192.537 127.062 191.308 128.486C190.635 129.259 189.598 129.433 188.177 131.423C186.756 133.416 180.028 139.298 173.25 140.144C169.836 140.571 167.56 142.42 167.56 142.42L135.57 163.178C135.57 163.178 120.783 165.737 122.488 157.491C124.195 149.245 152.205 140.571 162.3 137.302C168.934 135.152 169.411 133.319 170.829 131.897C172.253 130.476 174.907 124.409 178.509 122.513Z" fill="#F7B68B"/>
<path d="M169.294 74.0799C169.294 74.0799 163.421 86.4771 170.597 93.0015C177.773 99.526 162.973 103.766 159.995 103.766C151.189 103.766 147.763 90.3098 147.763 90.3098C147.763 90.3098 153.636 90.3924 154.125 85.171C155.145 74.2833 157.878 63.6431 157.878 63.6431L169.294 74.0799Z" fill="#F7B68B"/>
<path d="M169.293 74.08L157.877 63.6433C157.877 63.6433 155.943 71.1937 154.723 80.0767C155.466 83.703 156.477 84.9029 158.853 87.7657C160.961 90.3011 164.015 88.7356 167.099 85.528C166.583 79.8084 169.293 74.08 169.293 74.08Z" fill="#EC9568"/>
<path d="M153.311 65.6008C152.91 62.3607 152.819 60.2174 159.994 56.3021C167.17 52.3898 164.726 46.682 168.642 50.5943C172.557 54.5096 176.469 55.1611 176.469 55.1611C176.469 55.1611 179.078 64.2947 174.512 70.8192C169.945 77.3436 162.769 85.1711 158.854 81.2588C154.941 77.3436 154.735 77.1844 153.311 65.6008Z" fill="#F7B68B"/>
<path d="M216.049 404.237C218.428 403.314 218.65 401.477 218.49 399.761C218.328 398.052 219.487 397.686 221.306 398.175C223.128 398.659 235.145 401.053 236.492 400.451C237.843 399.856 240.994 399.039 242.504 400.151C242.577 400.204 242.642 400.272 242.701 400.339C242.716 402.144 241.301 404.968 239.264 406.377C236.513 408.276 230.283 409.715 225.492 409.67C220.707 409.626 216.972 411.316 215.527 411.428C215.171 411.451 214.876 411.366 214.619 411.201C214.333 410.711 214.068 410.169 213.761 409.721C212.96 408.562 211.474 405.148 211.474 405.148C211.474 405.148 213.673 405.163 216.049 404.237Z" fill="#212957"/>
<path d="M90.6804 408.665C88.8018 406.548 89.068 404.269 89.9374 402.792C90.2222 402.486 90.5106 402.12 90.7815 401.737C91.4422 401.082 92.1421 400.062 92.6828 399.189C93.1227 400.428 94.6646 404.706 95.2398 405.437C95.9164 406.301 97.8735 406.929 97.9643 405.021L97.9714 405.006C98.5082 404.992 98.9605 404.661 99.0115 403.783C100.374 403.193 102.65 403.394 103.093 404.11C103.733 405.133 108.725 413.836 110.628 416.21C112.53 418.583 117.036 422.613 117.57 424.839C117.698 425.39 117.596 425.959 117.326 426.49C116.191 427.422 114.513 427.955 112.958 427.528C111.144 427.027 103.321 423.704 100.649 420.104C97.9781 416.501 93.0475 411.318 90.6804 408.665Z" fill="#212957"/>
<path d="M53.3642 246.622L51.582 248.403L54.9934 251.814L60.9238 245.882L59.1416 244.101L54.9934 248.249L53.3642 246.622Z" fill="#9AC7F7"/>
<path d="M73.8132 243.733H63.8125V246.253H73.8132V243.733Z" fill="#9AC7F7"/>
<path d="M63.8125 250.033H71.2933V247.512H63.8125V250.033Z" fill="#9AC7F7"/>
<path d="M61.2936 239.953H48.6943V252.551H51.2142V242.471H61.2936V239.953Z" fill="#9AC7F7"/>
<path d="M53.3642 261.741L51.582 263.524L54.9934 266.935L60.9238 261.003L59.1416 259.22L54.9934 263.368L53.3642 261.741Z" fill="#9AC7F7"/>
<path d="M63.8125 261.372H73.8132V258.851H63.8125V261.372Z" fill="#9AC7F7"/>
<path d="M63.8125 265.152H71.2933V262.631H63.8125V265.152Z" fill="#9AC7F7"/>
<path d="M48.6943 267.669H51.2142V257.592H61.2936V255.071H48.6943V267.669Z" fill="#9AC7F7"/>
<path d="M72.5938 130.338C73.9853 130.338 75.1136 129.212 75.1136 127.82C75.1136 126.426 73.9853 125.3 72.5938 125.3C71.2022 125.3 70.0742 126.426 70.0742 127.82C70.0742 129.212 71.2022 130.338 72.5938 130.338Z" fill="#9AC7F7"/>
<path d="M76.3731 134.118C76.3731 132.729 75.2413 131.6 73.8532 131.6H70.6008L65.9246 126.927L64.1436 128.711L68.8135 133.375V137.897V140.418V147.977H71.3334V140.418H72.5932V147.977H75.113V140.418H76.3731V134.118Z" fill="#9AC7F7"/>
<path d="M53.6943 150.498C53.6943 149.106 52.566 147.977 51.1745 147.977H48.6543C47.2628 147.977 46.1348 149.106 46.1348 150.498V153.019H53.6943V150.498Z" fill="#9AC7F7"/>
<path d="M47.3945 144.198C47.3945 145.589 48.5228 146.718 49.9144 146.718C51.3059 146.718 52.4342 145.589 52.4342 144.198C52.4342 142.806 51.3059 141.677 49.9144 141.677C48.5228 141.677 47.3945 142.806 47.3945 144.198Z" fill="#9AC7F7"/>
<path d="M54.9541 150.498V153.019H62.5136V150.498C62.5136 149.106 61.3854 147.977 59.9938 147.977H57.4739C56.0824 147.977 54.9541 149.106 54.9541 150.498Z" fill="#9AC7F7"/>
<path d="M61.2542 144.198C61.2542 142.806 60.1263 141.677 58.7347 141.677C57.3431 141.677 56.2148 142.806 56.2148 144.198C56.2148 145.589 57.3431 146.718 58.7347 146.718C60.1263 146.718 61.2542 145.589 61.2542 144.198Z" fill="#9AC7F7"/>
<path d="M76.3737 149.239H63.7744V151.757H76.3737V149.239Z" fill="#9AC7F7"/>
<path d="M66.2935 137.897H48.6543V125.3H67.5536V122.779H46.1348V140.418H66.2935V137.897Z" fill="#9AC7F7"/>
<path d="M71.333 185.776H67.5533V181.997H71.333V185.776ZM73.8528 180.735C73.8528 180.042 73.2891 179.476 72.5927 179.476H66.2933C65.5969 179.476 65.0332 180.042 65.0332 180.735V187.035C65.0332 187.731 65.5969 188.294 66.2933 188.294H72.5927C73.2891 188.294 73.8528 187.731 73.8528 187.035V185.776L76.3727 188.294V179.476L73.8528 181.997V180.735Z" fill="#9AC7F7"/>
<path d="M72.5928 190.815V199.636H75.1126V190.815H72.5928Z" fill="#9AC7F7"/>
<path d="M62.5136 181.997H49.9144C48.5255 181.997 47.3945 183.126 47.3945 184.515V199.636H49.9144V184.515H62.5136V181.997Z" fill="#9AC7F7"/>
<path d="M73.8531 204.675H65.0335V203.416H73.8531V204.675ZM48.6543 204.675V203.416H57.4739V204.675H48.6543ZM63.7737 202.154H58.734V200.895H46.1348V204.675C46.1348 206.063 47.2654 207.195 48.6543 207.195H73.8531C75.2414 207.195 76.3729 206.063 76.3729 204.675V200.895H63.7737V202.154Z" fill="#9AC7F7"/>
<path d="M52.4346 197.115V199.636H62.514V197.115C62.514 195.724 61.3857 194.595 59.9941 194.595H54.9544C53.5629 194.595 52.4346 195.724 52.4346 197.115Z" fill="#9AC7F7"/>
<path d="M59.9938 190.815C59.9938 189.423 58.8655 188.294 57.4739 188.294C56.0824 188.294 54.9541 189.423 54.9541 190.815C54.9541 192.206 56.0824 193.336 57.4739 193.336C58.8655 193.336 59.9938 192.206 59.9938 190.815Z" fill="#9AC7F7"/>
<defs>
<linearGradient id="paint0_linear_55_405" x1="0" y1="70.5804" x2="68.502" y2="2.077" gradientUnits="userSpaceOnUse">
<stop stop-color="#5367FF"/>
<stop offset="1" stop-color="#00D09C"/>
</linearGradient>
<linearGradient id="paint1_linear_55_405" x1="128.35" y1="188.847" x2="208.809" y2="149.695" gradientUnits="userSpaceOnUse">
<stop stop-color="#5367FF"/>
<stop offset="1" stop-color="#00D09C"/>
</linearGradient>
</defs>
</svg>
